<mxfile host="app.diagrams.net" modified="2023-09-26T00:59:25.739Z" agent="Mozilla/5.0 (Windows NT 10.0; Win64; x64) AppleWebKit/537.36 (KHTML, like Gecko) Chrome/117.0.0.0 Safari/537.36 Edg/117.0.2045.36" etag="l54kSjRnMXywSye6tltd" version="21.8.2" type="github" pages="4">
  <diagram id="PSbGLTb-JGzMYXCRVldx" name="实体关系-SIL4">
    <mxGraphModel dx="2797" dy="2159" grid="1" gridSize="10" guides="1" tooltips="1" connect="1" arrows="1" fold="1" page="1" pageScale="1" pageWidth="850" pageHeight="1100" math="0" shadow="0">
      <root>
        <mxCell id="0" />
        <mxCell id="1" parent="0" />
        <mxCell id="k3wip8fT3nSkQ_HTbVzT-5" value="" style="rounded=0;whiteSpace=wrap;html=1;fillStyle=dashed;dashed=1;" parent="1" vertex="1">
          <mxGeometry x="-69" y="-70" width="370" height="440" as="geometry" />
        </mxCell>
        <mxCell id="k3wip8fT3nSkQ_HTbVzT-26" style="edgeStyle=orthogonalEdgeStyle;rounded=0;orthogonalLoop=1;jettySize=auto;html=1;exitX=1;exitY=0.5;exitDx=0;exitDy=0;entryX=0.25;entryY=0;entryDx=0;entryDy=0;" parent="1" source="k3wip8fT3nSkQ_HTbVzT-1" target="k3wip8fT3nSkQ_HTbVzT-25" edge="1">
          <mxGeometry relative="1" as="geometry">
            <mxPoint x="441" y="69.88235294117658" as="targetPoint" />
            <Array as="points">
              <mxPoint x="175" y="70" />
            </Array>
          </mxGeometry>
        </mxCell>
        <mxCell id="k3wip8fT3nSkQ_HTbVzT-32" style="edgeStyle=orthogonalEdgeStyle;rounded=0;orthogonalLoop=1;jettySize=auto;html=1;exitX=1;exitY=0.25;exitDx=0;exitDy=0;entryX=0;entryY=0.25;entryDx=0;entryDy=0;strokeWidth=4;strokeColor=#FF0000;" parent="1" source="k3wip8fT3nSkQ_HTbVzT-1" target="k3wip8fT3nSkQ_HTbVzT-33" edge="1">
          <mxGeometry relative="1" as="geometry">
            <mxPoint x="510" y="54.588235294117794" as="targetPoint" />
          </mxGeometry>
        </mxCell>
        <mxCell id="QuTVIExiebyAuRQyOiBQ-5" value="SIL0-100Mb&lt;br&gt;ETH" style="edgeLabel;html=1;align=center;verticalAlign=middle;resizable=0;points=[];fontSize=21;" parent="k3wip8fT3nSkQ_HTbVzT-32" vertex="1" connectable="0">
          <mxGeometry x="0.4133" relative="1" as="geometry">
            <mxPoint as="offset" />
          </mxGeometry>
        </mxCell>
        <mxCell id="k3wip8fT3nSkQ_HTbVzT-1" value="传感器1-1&lt;br style=&quot;font-size: 16px;&quot;&gt;GPS-RTK" style="rounded=0;whiteSpace=wrap;html=1;fillColor=#f8cecc;strokeColor=#b85450;fontSize=16;" parent="1" vertex="1">
          <mxGeometry x="-39" y="35" width="120" height="60" as="geometry" />
        </mxCell>
        <mxCell id="k3wip8fT3nSkQ_HTbVzT-19" style="edgeStyle=orthogonalEdgeStyle;rounded=0;orthogonalLoop=1;jettySize=auto;html=1;exitX=1;exitY=0.5;exitDx=0;exitDy=0;entryX=0;entryY=0.5;entryDx=0;entryDy=0;strokeWidth=4;strokeColor=#FF0000;" parent="1" source="k3wip8fT3nSkQ_HTbVzT-2" target="k3wip8fT3nSkQ_HTbVzT-33" edge="1">
          <mxGeometry relative="1" as="geometry">
            <mxPoint x="510" y="150" as="targetPoint" />
          </mxGeometry>
        </mxCell>
        <mxCell id="QuTVIExiebyAuRQyOiBQ-4" value="SIL0-100Mb&lt;br&gt;ETH" style="edgeLabel;html=1;align=center;verticalAlign=middle;resizable=0;points=[];fontSize=21;" parent="k3wip8fT3nSkQ_HTbVzT-19" vertex="1" connectable="0">
          <mxGeometry x="0.4002" y="2" relative="1" as="geometry">
            <mxPoint x="-8" y="2" as="offset" />
          </mxGeometry>
        </mxCell>
        <mxCell id="k3wip8fT3nSkQ_HTbVzT-47" style="edgeStyle=orthogonalEdgeStyle;rounded=0;orthogonalLoop=1;jettySize=auto;html=1;exitX=0.5;exitY=1;exitDx=0;exitDy=0;entryX=0;entryY=0.25;entryDx=0;entryDy=0;" parent="1" source="k3wip8fT3nSkQ_HTbVzT-2" target="k3wip8fT3nSkQ_HTbVzT-25" edge="1">
          <mxGeometry relative="1" as="geometry" />
        </mxCell>
        <mxCell id="k3wip8fT3nSkQ_HTbVzT-2" value="传感器1-2&lt;br style=&quot;font-size: 16px;&quot;&gt;BD-RTK" style="rounded=0;whiteSpace=wrap;html=1;fillColor=#f8cecc;strokeColor=#b85450;fontSize=16;" parent="1" vertex="1">
          <mxGeometry x="-39" y="120" width="120" height="60" as="geometry" />
        </mxCell>
        <mxCell id="k3wip8fT3nSkQ_HTbVzT-29" style="edgeStyle=orthogonalEdgeStyle;rounded=0;orthogonalLoop=1;jettySize=auto;html=1;exitX=1;exitY=0.5;exitDx=0;exitDy=0;" parent="1" source="k3wip8fT3nSkQ_HTbVzT-3" target="k3wip8fT3nSkQ_HTbVzT-25" edge="1">
          <mxGeometry relative="1" as="geometry" />
        </mxCell>
        <mxCell id="k3wip8fT3nSkQ_HTbVzT-3" value="传感器2-1&lt;br style=&quot;font-size: 15px;&quot;&gt;机械式Lidar" style="rounded=0;whiteSpace=wrap;html=1;fillColor=#dae8fc;strokeColor=#6c8ebf;fontSize=15;" parent="1" vertex="1">
          <mxGeometry x="-39" y="280" width="120" height="60" as="geometry" />
        </mxCell>
        <mxCell id="k3wip8fT3nSkQ_HTbVzT-27" style="edgeStyle=orthogonalEdgeStyle;rounded=0;orthogonalLoop=1;jettySize=auto;html=1;exitX=1;exitY=0.5;exitDx=0;exitDy=0;" parent="1" source="k3wip8fT3nSkQ_HTbVzT-4" target="k3wip8fT3nSkQ_HTbVzT-24" edge="1">
          <mxGeometry relative="1" as="geometry" />
        </mxCell>
        <mxCell id="k3wip8fT3nSkQ_HTbVzT-4" value="传感器0-1&lt;br style=&quot;font-size: 15px;&quot;&gt;Camera 模组" style="rounded=0;whiteSpace=wrap;html=1;dashed=1;fillColor=#dae8fc;strokeColor=#6c8ebf;fontSize=15;" parent="1" vertex="1">
          <mxGeometry x="-39" y="-53" width="120" height="60" as="geometry" />
        </mxCell>
        <mxCell id="k3wip8fT3nSkQ_HTbVzT-9" style="edgeStyle=orthogonalEdgeStyle;rounded=0;orthogonalLoop=1;jettySize=auto;html=1;exitX=1;exitY=0.5;exitDx=0;exitDy=0;entryX=0;entryY=0.5;entryDx=0;entryDy=0;" parent="1" source="k3wip8fT3nSkQ_HTbVzT-7" target="k3wip8fT3nSkQ_HTbVzT-1" edge="1">
          <mxGeometry relative="1" as="geometry" />
        </mxCell>
        <mxCell id="k3wip8fT3nSkQ_HTbVzT-7" value="定位信号" style="ellipse;whiteSpace=wrap;html=1;align=center;fontStyle=4;" parent="1" vertex="1">
          <mxGeometry x="-229" y="45" width="100" height="40" as="geometry" />
        </mxCell>
        <mxCell id="k3wip8fT3nSkQ_HTbVzT-12" style="edgeStyle=orthogonalEdgeStyle;rounded=0;orthogonalLoop=1;jettySize=auto;html=1;exitX=1;exitY=0.5;exitDx=0;exitDy=0;entryX=0;entryY=0.5;entryDx=0;entryDy=0;" parent="1" source="k3wip8fT3nSkQ_HTbVzT-10" target="k3wip8fT3nSkQ_HTbVzT-2" edge="1">
          <mxGeometry relative="1" as="geometry" />
        </mxCell>
        <mxCell id="k3wip8fT3nSkQ_HTbVzT-10" value="定位信号" style="ellipse;whiteSpace=wrap;html=1;align=center;fontStyle=4;" parent="1" vertex="1">
          <mxGeometry x="-229" y="130" width="100" height="40" as="geometry" />
        </mxCell>
        <mxCell id="k3wip8fT3nSkQ_HTbVzT-15" style="edgeStyle=orthogonalEdgeStyle;rounded=0;orthogonalLoop=1;jettySize=auto;html=1;exitX=1;exitY=0.5;exitDx=0;exitDy=0;entryX=0;entryY=0.5;entryDx=0;entryDy=0;" parent="1" source="k3wip8fT3nSkQ_HTbVzT-13" target="k3wip8fT3nSkQ_HTbVzT-3" edge="1">
          <mxGeometry relative="1" as="geometry" />
        </mxCell>
        <mxCell id="k3wip8fT3nSkQ_HTbVzT-13" value="点云数据" style="ellipse;whiteSpace=wrap;html=1;align=center;fontStyle=4;" parent="1" vertex="1">
          <mxGeometry x="-221" y="290" width="100" height="40" as="geometry" />
        </mxCell>
        <mxCell id="D5JBo_ZwWprGUE0tr2o2-14" style="edgeStyle=orthogonalEdgeStyle;rounded=0;orthogonalLoop=1;jettySize=auto;html=1;exitX=0.75;exitY=1;exitDx=0;exitDy=0;entryX=0.75;entryY=0;entryDx=0;entryDy=0;" parent="1" source="k3wip8fT3nSkQ_HTbVzT-24" target="k3wip8fT3nSkQ_HTbVzT-25" edge="1">
          <mxGeometry relative="1" as="geometry" />
        </mxCell>
        <mxCell id="k3wip8fT3nSkQ_HTbVzT-24" value="处理器&lt;br style=&quot;font-size: 15px;&quot;&gt;Orin" style="whiteSpace=wrap;html=1;align=center;dashed=1;fillColor=#dae8fc;strokeColor=#6c8ebf;fontSize=15;" parent="1" vertex="1">
          <mxGeometry x="150" y="-53" width="100" height="60" as="geometry" />
        </mxCell>
        <mxCell id="k3wip8fT3nSkQ_HTbVzT-34" style="edgeStyle=orthogonalEdgeStyle;rounded=0;orthogonalLoop=1;jettySize=auto;html=1;exitX=1;exitY=0.5;exitDx=0;exitDy=0;entryX=0.005;entryY=0.661;entryDx=0;entryDy=0;strokeWidth=4;entryPerimeter=0;startArrow=classicThin;startFill=1;strokeColor=#FF0000;" parent="1" source="k3wip8fT3nSkQ_HTbVzT-25" target="k3wip8fT3nSkQ_HTbVzT-33" edge="1">
          <mxGeometry relative="1" as="geometry" />
        </mxCell>
        <mxCell id="QuTVIExiebyAuRQyOiBQ-1" value="SIL0-100Mb&lt;br&gt;ETH" style="edgeLabel;html=1;align=center;verticalAlign=middle;resizable=0;points=[];fontSize=21;" parent="k3wip8fT3nSkQ_HTbVzT-34" vertex="1" connectable="0">
          <mxGeometry x="0.4401" y="-2" relative="1" as="geometry">
            <mxPoint x="-24" y="4" as="offset" />
          </mxGeometry>
        </mxCell>
        <mxCell id="k3wip8fT3nSkQ_HTbVzT-25" value="处理器&lt;br style=&quot;font-size: 15px;&quot;&gt;智能驾驶机箱" style="whiteSpace=wrap;html=1;align=center;fillColor=#dae8fc;strokeColor=#6c8ebf;verticalAlign=top;fontSize=15;" parent="1" vertex="1">
          <mxGeometry x="150" y="190" width="100" height="150" as="geometry" />
        </mxCell>
        <mxCell id="k3wip8fT3nSkQ_HTbVzT-60" style="edgeStyle=orthogonalEdgeStyle;rounded=0;orthogonalLoop=1;jettySize=auto;html=1;exitX=0.75;exitY=0;exitDx=0;exitDy=0;entryX=0.5;entryY=0;entryDx=0;entryDy=0;strokeWidth=4;" parent="1" source="k3wip8fT3nSkQ_HTbVzT-33" target="k3wip8fT3nSkQ_HTbVzT-55" edge="1">
          <mxGeometry relative="1" as="geometry">
            <Array as="points">
              <mxPoint x="735" y="-130" />
              <mxPoint x="1190" y="-130" />
            </Array>
          </mxGeometry>
        </mxCell>
        <mxCell id="D5JBo_ZwWprGUE0tr2o2-3" value="SIL4-DO" style="edgeLabel;html=1;align=center;verticalAlign=middle;resizable=0;points=[];fontSize=21;" parent="k3wip8fT3nSkQ_HTbVzT-60" vertex="1" connectable="0">
          <mxGeometry x="0.2349" y="2" relative="1" as="geometry">
            <mxPoint x="-26" as="offset" />
          </mxGeometry>
        </mxCell>
        <mxCell id="k3wip8fT3nSkQ_HTbVzT-33" value="安全计算平台&lt;br style=&quot;font-size: 20px;&quot;&gt;SIL4-机箱" style="whiteSpace=wrap;html=1;align=center;fillColor=#60a917;fontColor=#ffffff;strokeColor=#2D7600;verticalAlign=top;fontSize=20;" parent="1" vertex="1">
          <mxGeometry x="510" y="-50" width="300" height="400" as="geometry" />
        </mxCell>
        <mxCell id="k3wip8fT3nSkQ_HTbVzT-59" style="edgeStyle=orthogonalEdgeStyle;rounded=0;orthogonalLoop=1;jettySize=auto;html=1;exitX=0;exitY=0.25;exitDx=0;exitDy=0;entryX=1;entryY=0.5;entryDx=0;entryDy=0;strokeWidth=4;startArrow=classic;startFill=1;strokeColor=#FF0000;" parent="1" source="k3wip8fT3nSkQ_HTbVzT-52" target="k3wip8fT3nSkQ_HTbVzT-33" edge="1">
          <mxGeometry relative="1" as="geometry">
            <Array as="points">
              <mxPoint x="1000" y="262" />
              <mxPoint x="1000" y="150" />
            </Array>
          </mxGeometry>
        </mxCell>
        <mxCell id="D5JBo_ZwWprGUE0tr2o2-4" value="SIL0-CAN" style="edgeLabel;html=1;align=center;verticalAlign=middle;resizable=0;points=[];fontSize=21;" parent="k3wip8fT3nSkQ_HTbVzT-59" vertex="1" connectable="0">
          <mxGeometry x="0.2878" y="3" relative="1" as="geometry">
            <mxPoint x="21" y="-3" as="offset" />
          </mxGeometry>
        </mxCell>
        <mxCell id="k3wip8fT3nSkQ_HTbVzT-52" value="&lt;font style=&quot;font-size: 20px;&quot;&gt;线控转向机&lt;br&gt;要求SIL1+人工&lt;/font&gt;" style="whiteSpace=wrap;html=1;align=center;fontSize=16;fillColor=#f8cecc;strokeColor=#b85450;" parent="1" vertex="1">
          <mxGeometry x="1060" y="230" width="260" height="130" as="geometry" />
        </mxCell>
        <mxCell id="k3wip8fT3nSkQ_HTbVzT-53" value="" style="endArrow=none;dashed=1;html=1;rounded=0;fillColor=#d80073;strokeColor=#A50040;strokeWidth=3;" parent="1" edge="1">
          <mxGeometry width="50" height="50" relative="1" as="geometry">
            <mxPoint x="390" y="770" as="sourcePoint" />
            <mxPoint x="390" y="-290" as="targetPoint" />
          </mxGeometry>
        </mxCell>
        <mxCell id="k3wip8fT3nSkQ_HTbVzT-54" value="" style="endArrow=none;dashed=1;html=1;rounded=0;fillColor=#d80073;strokeColor=#A50040;strokeWidth=3;" parent="1" edge="1">
          <mxGeometry width="50" height="50" relative="1" as="geometry">
            <mxPoint x="900" y="750" as="sourcePoint" />
            <mxPoint x="890" y="-290" as="targetPoint" />
          </mxGeometry>
        </mxCell>
        <mxCell id="k3wip8fT3nSkQ_HTbVzT-55" value="执行器1&lt;br style=&quot;font-size: 20px;&quot;&gt;安全制动系统" style="whiteSpace=wrap;html=1;align=center;fontSize=20;fillColor=#60a917;fontColor=#ffffff;strokeColor=#2D7600;fontStyle=1" parent="1" vertex="1">
          <mxGeometry x="1055" y="-90" width="270" height="80" as="geometry" />
        </mxCell>
        <mxCell id="k3wip8fT3nSkQ_HTbVzT-64" style="edgeStyle=orthogonalEdgeStyle;rounded=0;orthogonalLoop=1;jettySize=auto;html=1;exitX=1;exitY=0.5;exitDx=0;exitDy=0;strokeWidth=4;startArrow=classic;startFill=1;" parent="1" source="k3wip8fT3nSkQ_HTbVzT-61" target="k3wip8fT3nSkQ_HTbVzT-33" edge="1">
          <mxGeometry relative="1" as="geometry" />
        </mxCell>
        <mxCell id="D5JBo_ZwWprGUE0tr2o2-13" value="SIL2-100Mb&lt;br&gt;ETH" style="edgeLabel;html=1;align=center;verticalAlign=middle;resizable=0;points=[];fontSize=21;" parent="k3wip8fT3nSkQ_HTbVzT-64" vertex="1" connectable="0">
          <mxGeometry x="0.1152" relative="1" as="geometry">
            <mxPoint as="offset" />
          </mxGeometry>
        </mxCell>
        <mxCell id="D5JBo_ZwWprGUE0tr2o2-2" style="edgeStyle=orthogonalEdgeStyle;rounded=0;orthogonalLoop=1;jettySize=auto;html=1;exitX=0.75;exitY=0;exitDx=0;exitDy=0;entryX=1;entryY=0.75;entryDx=0;entryDy=0;startArrow=classic;startFill=1;" parent="1" source="k3wip8fT3nSkQ_HTbVzT-61" target="k3wip8fT3nSkQ_HTbVzT-25" edge="1">
          <mxGeometry relative="1" as="geometry" />
        </mxCell>
        <mxCell id="tuFz9fcPf5YimxcDWDDr-2" value="1000MB&lt;br style=&quot;font-size: 21px;&quot;&gt;ETH" style="edgeLabel;html=1;align=center;verticalAlign=middle;resizable=0;points=[];fontSize=21;" parent="D5JBo_ZwWprGUE0tr2o2-2" vertex="1" connectable="0">
          <mxGeometry x="-0.1933" y="4" relative="1" as="geometry">
            <mxPoint as="offset" />
          </mxGeometry>
        </mxCell>
        <mxCell id="oWysnuYIhE1WeySD9ms7-2" style="edgeStyle=orthogonalEdgeStyle;rounded=0;orthogonalLoop=1;jettySize=auto;html=1;exitX=0.5;exitY=1;exitDx=0;exitDy=0;entryX=0.5;entryY=0;entryDx=0;entryDy=0;startArrow=classic;startFill=1;" parent="1" source="k3wip8fT3nSkQ_HTbVzT-61" target="oWysnuYIhE1WeySD9ms7-1" edge="1">
          <mxGeometry relative="1" as="geometry" />
        </mxCell>
        <mxCell id="k3wip8fT3nSkQ_HTbVzT-61" value="整车网络-VCMS" style="whiteSpace=wrap;html=1;align=center;fontSize=15;fillColor=#d5e8d4;strokeColor=#82b366;" parent="1" vertex="1">
          <mxGeometry x="193" y="540" width="180" height="70" as="geometry" />
        </mxCell>
        <mxCell id="k3wip8fT3nSkQ_HTbVzT-63" style="edgeStyle=orthogonalEdgeStyle;rounded=0;orthogonalLoop=1;jettySize=auto;html=1;exitX=1;exitY=0.5;exitDx=0;exitDy=0;entryX=0;entryY=0.5;entryDx=0;entryDy=0;strokeWidth=4;" parent="1" source="k3wip8fT3nSkQ_HTbVzT-62" target="k3wip8fT3nSkQ_HTbVzT-61" edge="1">
          <mxGeometry relative="1" as="geometry" />
        </mxCell>
        <mxCell id="k3wip8fT3nSkQ_HTbVzT-62" value="信号系统" style="whiteSpace=wrap;html=1;align=center;fontSize=15;fillColor=#60a917;fontColor=#ffffff;strokeColor=#2D7600;" parent="1" vertex="1">
          <mxGeometry x="-52" y="540" width="170" height="70" as="geometry" />
        </mxCell>
        <mxCell id="D5JBo_ZwWprGUE0tr2o2-7" style="edgeStyle=orthogonalEdgeStyle;rounded=0;orthogonalLoop=1;jettySize=auto;html=1;exitX=0.5;exitY=0;exitDx=0;exitDy=0;entryX=1;entryY=0.05;entryDx=0;entryDy=0;entryPerimeter=0;strokeWidth=4;" parent="1" source="D5JBo_ZwWprGUE0tr2o2-5" target="k3wip8fT3nSkQ_HTbVzT-33" edge="1">
          <mxGeometry relative="1" as="geometry">
            <Array as="points">
              <mxPoint x="1190" y="20" />
              <mxPoint x="908" y="20" />
              <mxPoint x="908" y="-30" />
            </Array>
          </mxGeometry>
        </mxCell>
        <mxCell id="D5JBo_ZwWprGUE0tr2o2-8" value="SIL2-CAN" style="edgeLabel;html=1;align=center;verticalAlign=middle;resizable=0;points=[];fontSize=21;" parent="D5JBo_ZwWprGUE0tr2o2-7" vertex="1" connectable="0">
          <mxGeometry x="0.021" y="1" relative="1" as="geometry">
            <mxPoint as="offset" />
          </mxGeometry>
        </mxCell>
        <mxCell id="D5JBo_ZwWprGUE0tr2o2-5" value="执行器2&lt;br style=&quot;font-size: 20px;&quot;&gt;无轨导向-第一轴" style="whiteSpace=wrap;html=1;align=center;fontSize=20;fillColor=#d5e8d4;strokeColor=#82b366;" parent="1" vertex="1">
          <mxGeometry x="1055" y="80" width="270" height="130" as="geometry" />
        </mxCell>
        <mxCell id="YiXw8Y56aFc3_bIy6W4r-1" value="输入" style="rounded=0;whiteSpace=wrap;html=1;fontSize=30;fillColor=#ffe6cc;strokeColor=#d79b00;" parent="1" vertex="1">
          <mxGeometry x="-121" y="-220" width="430" height="60" as="geometry" />
        </mxCell>
        <mxCell id="YiXw8Y56aFc3_bIy6W4r-2" value="计算" style="rounded=0;whiteSpace=wrap;html=1;fontSize=30;fillColor=#ffe6cc;strokeColor=#d79b00;" parent="1" vertex="1">
          <mxGeometry x="425" y="-220" width="430" height="60" as="geometry" />
        </mxCell>
        <mxCell id="YiXw8Y56aFc3_bIy6W4r-3" value="输出" style="rounded=0;whiteSpace=wrap;html=1;fontSize=30;fillColor=#ffe6cc;strokeColor=#d79b00;" parent="1" vertex="1">
          <mxGeometry x="970" y="-220" width="430" height="60" as="geometry" />
        </mxCell>
        <mxCell id="oWysnuYIhE1WeySD9ms7-1" value="HMI" style="rounded=0;whiteSpace=wrap;html=1;fillColor=#dae8fc;strokeColor=#6c8ebf;" parent="1" vertex="1">
          <mxGeometry x="193" y="690" width="120" height="60" as="geometry" />
        </mxCell>
        <mxCell id="oWysnuYIhE1WeySD9ms7-3" value="循迹控制-安全-SIL2" style="rounded=0;whiteSpace=wrap;html=1;fontSize=16;fillColor=#d5e8d4;strokeColor=#b37965;" parent="1" vertex="1">
          <mxGeometry x="585" y="50" width="150" height="60" as="geometry" />
        </mxCell>
        <mxCell id="oWysnuYIhE1WeySD9ms7-5" value="道岔选择-SIL2" style="rounded=0;whiteSpace=wrap;html=1;fontSize=16;fillColor=#d5e8d4;strokeColor=#b37965;" parent="1" vertex="1">
          <mxGeometry x="585" y="130" width="150" height="60" as="geometry" />
        </mxCell>
        <mxCell id="oWysnuYIhE1WeySD9ms7-6" value="失效安全保护-SIL4" style="rounded=0;whiteSpace=wrap;html=1;fontSize=16;fillColor=#008a00;strokeColor=#005700;fontColor=#ffffff;" parent="1" vertex="1">
          <mxGeometry x="585" y="210" width="150" height="60" as="geometry" />
        </mxCell>
        <mxCell id="oWysnuYIhE1WeySD9ms7-7" value="循迹控制-性能-SIL0" style="rounded=0;whiteSpace=wrap;html=1;fontSize=16;fillColor=#d5e8d4;strokeColor=#b37965;" parent="1" vertex="1">
          <mxGeometry x="160" y="260" width="80" height="60" as="geometry" />
        </mxCell>
      </root>
    </mxGraphModel>
  </diagram>
  <diagram id="cb_i7vQEoCEqY-VlV7jo" name="实体关系-SIL2">
    <mxGraphModel dx="2797" dy="2159" grid="1" gridSize="10" guides="1" tooltips="1" connect="1" arrows="1" fold="1" page="1" pageScale="1" pageWidth="850" pageHeight="1100" math="0" shadow="0">
      <root>
        <mxCell id="0" />
        <mxCell id="1" parent="0" />
        <mxCell id="3FRlpT5fI4wf7kMN5uNB-2" value="" style="rounded=0;whiteSpace=wrap;html=1;fillStyle=dashed;dashed=1;" parent="1" vertex="1">
          <mxGeometry x="-69" y="-70" width="370" height="440" as="geometry" />
        </mxCell>
        <mxCell id="3FRlpT5fI4wf7kMN5uNB-3" style="edgeStyle=orthogonalEdgeStyle;rounded=0;orthogonalLoop=1;jettySize=auto;html=1;exitX=1;exitY=0.5;exitDx=0;exitDy=0;entryX=0.25;entryY=0;entryDx=0;entryDy=0;" parent="1" source="3FRlpT5fI4wf7kMN5uNB-6" target="3FRlpT5fI4wf7kMN5uNB-25" edge="1">
          <mxGeometry relative="1" as="geometry">
            <mxPoint x="441" y="69.88235294117658" as="targetPoint" />
            <Array as="points">
              <mxPoint x="175" y="70" />
            </Array>
          </mxGeometry>
        </mxCell>
        <mxCell id="3FRlpT5fI4wf7kMN5uNB-4" style="edgeStyle=orthogonalEdgeStyle;rounded=0;orthogonalLoop=1;jettySize=auto;html=1;exitX=1;exitY=0.25;exitDx=0;exitDy=0;entryX=0;entryY=0.25;entryDx=0;entryDy=0;strokeWidth=4;" parent="1" source="3FRlpT5fI4wf7kMN5uNB-6" target="3FRlpT5fI4wf7kMN5uNB-32" edge="1">
          <mxGeometry relative="1" as="geometry">
            <mxPoint x="510" y="54.588235294117794" as="targetPoint" />
          </mxGeometry>
        </mxCell>
        <mxCell id="3FRlpT5fI4wf7kMN5uNB-5" value="SIL1-ETH" style="edgeLabel;html=1;align=center;verticalAlign=middle;resizable=0;points=[];fontSize=21;" parent="3FRlpT5fI4wf7kMN5uNB-4" vertex="1" connectable="0">
          <mxGeometry x="0.4133" relative="1" as="geometry">
            <mxPoint as="offset" />
          </mxGeometry>
        </mxCell>
        <mxCell id="3FRlpT5fI4wf7kMN5uNB-6" value="传感器1-1&lt;br&gt;GPS-RTK" style="rounded=0;whiteSpace=wrap;html=1;fillColor=#d5e8d4;strokeColor=#82b366;" parent="1" vertex="1">
          <mxGeometry x="-39" y="40" width="120" height="60" as="geometry" />
        </mxCell>
        <mxCell id="3FRlpT5fI4wf7kMN5uNB-7" style="edgeStyle=orthogonalEdgeStyle;rounded=0;orthogonalLoop=1;jettySize=auto;html=1;exitX=1;exitY=0.5;exitDx=0;exitDy=0;entryX=0;entryY=0.5;entryDx=0;entryDy=0;strokeWidth=4;" parent="1" source="3FRlpT5fI4wf7kMN5uNB-10" target="3FRlpT5fI4wf7kMN5uNB-32" edge="1">
          <mxGeometry relative="1" as="geometry">
            <mxPoint x="510" y="150" as="targetPoint" />
          </mxGeometry>
        </mxCell>
        <mxCell id="3FRlpT5fI4wf7kMN5uNB-8" value="SIL1-ETH" style="edgeLabel;html=1;align=center;verticalAlign=middle;resizable=0;points=[];fontSize=21;" parent="3FRlpT5fI4wf7kMN5uNB-7" vertex="1" connectable="0">
          <mxGeometry x="0.4002" y="2" relative="1" as="geometry">
            <mxPoint as="offset" />
          </mxGeometry>
        </mxCell>
        <mxCell id="3FRlpT5fI4wf7kMN5uNB-9" style="edgeStyle=orthogonalEdgeStyle;rounded=0;orthogonalLoop=1;jettySize=auto;html=1;exitX=0.5;exitY=1;exitDx=0;exitDy=0;entryX=0;entryY=0.25;entryDx=0;entryDy=0;" parent="1" source="3FRlpT5fI4wf7kMN5uNB-10" target="3FRlpT5fI4wf7kMN5uNB-25" edge="1">
          <mxGeometry relative="1" as="geometry" />
        </mxCell>
        <mxCell id="3FRlpT5fI4wf7kMN5uNB-10" value="传感器1-2&lt;br&gt;BD-RTK" style="rounded=0;whiteSpace=wrap;html=1;fillColor=#d5e8d4;strokeColor=#82b366;" parent="1" vertex="1">
          <mxGeometry x="-39" y="120" width="120" height="60" as="geometry" />
        </mxCell>
        <mxCell id="3FRlpT5fI4wf7kMN5uNB-11" style="edgeStyle=orthogonalEdgeStyle;rounded=0;orthogonalLoop=1;jettySize=auto;html=1;exitX=1;exitY=0.5;exitDx=0;exitDy=0;" parent="1" source="3FRlpT5fI4wf7kMN5uNB-12" target="3FRlpT5fI4wf7kMN5uNB-25" edge="1">
          <mxGeometry relative="1" as="geometry" />
        </mxCell>
        <mxCell id="3FRlpT5fI4wf7kMN5uNB-12" value="传感器2-1&lt;br&gt;机械式Lidar" style="rounded=0;whiteSpace=wrap;html=1;fillColor=#f5f5f5;strokeColor=#666666;fontColor=#333333;" parent="1" vertex="1">
          <mxGeometry x="-39" y="280" width="120" height="60" as="geometry" />
        </mxCell>
        <mxCell id="3FRlpT5fI4wf7kMN5uNB-13" style="edgeStyle=orthogonalEdgeStyle;rounded=0;orthogonalLoop=1;jettySize=auto;html=1;exitX=1;exitY=0.5;exitDx=0;exitDy=0;dashed=1;" parent="1" source="3FRlpT5fI4wf7kMN5uNB-14" target="3FRlpT5fI4wf7kMN5uNB-22" edge="1">
          <mxGeometry relative="1" as="geometry" />
        </mxCell>
        <mxCell id="3FRlpT5fI4wf7kMN5uNB-14" value="传感器0-1&lt;br&gt;Camera 模组" style="rounded=0;whiteSpace=wrap;html=1;dashed=1;fillColor=#f5f5f5;fontColor=#333333;strokeColor=#666666;" parent="1" vertex="1">
          <mxGeometry x="-39" y="-40" width="120" height="60" as="geometry" />
        </mxCell>
        <mxCell id="3FRlpT5fI4wf7kMN5uNB-15" style="edgeStyle=orthogonalEdgeStyle;rounded=0;orthogonalLoop=1;jettySize=auto;html=1;exitX=1;exitY=0.5;exitDx=0;exitDy=0;entryX=0;entryY=0.5;entryDx=0;entryDy=0;" parent="1" source="3FRlpT5fI4wf7kMN5uNB-16" target="3FRlpT5fI4wf7kMN5uNB-6" edge="1">
          <mxGeometry relative="1" as="geometry" />
        </mxCell>
        <mxCell id="3FRlpT5fI4wf7kMN5uNB-16" value="定位信号" style="ellipse;whiteSpace=wrap;html=1;align=center;fontStyle=4;" parent="1" vertex="1">
          <mxGeometry x="-229" y="50" width="100" height="40" as="geometry" />
        </mxCell>
        <mxCell id="3FRlpT5fI4wf7kMN5uNB-17" style="edgeStyle=orthogonalEdgeStyle;rounded=0;orthogonalLoop=1;jettySize=auto;html=1;exitX=1;exitY=0.5;exitDx=0;exitDy=0;entryX=0;entryY=0.5;entryDx=0;entryDy=0;" parent="1" source="3FRlpT5fI4wf7kMN5uNB-18" target="3FRlpT5fI4wf7kMN5uNB-10" edge="1">
          <mxGeometry relative="1" as="geometry" />
        </mxCell>
        <mxCell id="3FRlpT5fI4wf7kMN5uNB-18" value="定位信号" style="ellipse;whiteSpace=wrap;html=1;align=center;fontStyle=4;" parent="1" vertex="1">
          <mxGeometry x="-229" y="130" width="100" height="40" as="geometry" />
        </mxCell>
        <mxCell id="3FRlpT5fI4wf7kMN5uNB-19" style="edgeStyle=orthogonalEdgeStyle;rounded=0;orthogonalLoop=1;jettySize=auto;html=1;exitX=1;exitY=0.5;exitDx=0;exitDy=0;entryX=0;entryY=0.5;entryDx=0;entryDy=0;" parent="1" source="3FRlpT5fI4wf7kMN5uNB-20" target="3FRlpT5fI4wf7kMN5uNB-12" edge="1">
          <mxGeometry relative="1" as="geometry" />
        </mxCell>
        <mxCell id="3FRlpT5fI4wf7kMN5uNB-20" value="点云数据" style="ellipse;whiteSpace=wrap;html=1;align=center;fontStyle=4;" parent="1" vertex="1">
          <mxGeometry x="-221" y="290" width="100" height="40" as="geometry" />
        </mxCell>
        <mxCell id="3FRlpT5fI4wf7kMN5uNB-21" style="edgeStyle=orthogonalEdgeStyle;rounded=0;orthogonalLoop=1;jettySize=auto;html=1;exitX=0.75;exitY=1;exitDx=0;exitDy=0;entryX=0.75;entryY=0;entryDx=0;entryDy=0;" parent="1" source="3FRlpT5fI4wf7kMN5uNB-22" target="3FRlpT5fI4wf7kMN5uNB-25" edge="1">
          <mxGeometry relative="1" as="geometry" />
        </mxCell>
        <mxCell id="3FRlpT5fI4wf7kMN5uNB-22" value="处理器&lt;br&gt;Orin" style="whiteSpace=wrap;html=1;align=center;dashed=1;fillColor=#f5f5f5;fontColor=#333333;strokeColor=#666666;" parent="1" vertex="1">
          <mxGeometry x="150" y="-40" width="100" height="60" as="geometry" />
        </mxCell>
        <mxCell id="3FRlpT5fI4wf7kMN5uNB-23" style="edgeStyle=orthogonalEdgeStyle;rounded=0;orthogonalLoop=1;jettySize=auto;html=1;exitX=1;exitY=0.5;exitDx=0;exitDy=0;entryX=0.005;entryY=0.661;entryDx=0;entryDy=0;strokeWidth=4;entryPerimeter=0;" parent="1" source="3FRlpT5fI4wf7kMN5uNB-25" target="3FRlpT5fI4wf7kMN5uNB-32" edge="1">
          <mxGeometry relative="1" as="geometry" />
        </mxCell>
        <mxCell id="3FRlpT5fI4wf7kMN5uNB-24" value="SIL0-ETH" style="edgeLabel;html=1;align=center;verticalAlign=middle;resizable=0;points=[];fontSize=21;" parent="3FRlpT5fI4wf7kMN5uNB-23" vertex="1" connectable="0">
          <mxGeometry x="0.4401" y="-2" relative="1" as="geometry">
            <mxPoint x="-44" y="24" as="offset" />
          </mxGeometry>
        </mxCell>
        <mxCell id="3FRlpT5fI4wf7kMN5uNB-25" value="处理器&lt;br&gt;智能驾驶机箱" style="whiteSpace=wrap;html=1;align=center;fillColor=#f5f5f5;fontColor=#333333;strokeColor=#666666;" parent="1" vertex="1">
          <mxGeometry x="150" y="190" width="100" height="150" as="geometry" />
        </mxCell>
        <mxCell id="3FRlpT5fI4wf7kMN5uNB-26" style="edgeStyle=orthogonalEdgeStyle;rounded=0;orthogonalLoop=1;jettySize=auto;html=1;exitX=0.995;exitY=0.604;exitDx=0;exitDy=0;entryX=-0.004;entryY=0.624;entryDx=0;entryDy=0;entryPerimeter=0;strokeWidth=4;exitPerimeter=0;" parent="1" source="3FRlpT5fI4wf7kMN5uNB-32" target="3FRlpT5fI4wf7kMN5uNB-35" edge="1">
          <mxGeometry relative="1" as="geometry">
            <Array as="points">
              <mxPoint x="950" y="192" />
              <mxPoint x="950" y="277" />
            </Array>
          </mxGeometry>
        </mxCell>
        <mxCell id="3FRlpT5fI4wf7kMN5uNB-27" value="SIL2/SIL0-CAN" style="edgeLabel;html=1;align=center;verticalAlign=middle;resizable=0;points=[];fontSize=21;" parent="3FRlpT5fI4wf7kMN5uNB-26" vertex="1" connectable="0">
          <mxGeometry x="-0.5357" y="-1" relative="1" as="geometry">
            <mxPoint x="82" y="47" as="offset" />
          </mxGeometry>
        </mxCell>
        <mxCell id="3FRlpT5fI4wf7kMN5uNB-30" style="edgeStyle=orthogonalEdgeStyle;rounded=0;orthogonalLoop=1;jettySize=auto;html=1;exitX=0.75;exitY=1;exitDx=0;exitDy=0;entryX=0.25;entryY=1;entryDx=0;entryDy=0;strokeWidth=4;" parent="1" source="3FRlpT5fI4wf7kMN5uNB-32" target="3FRlpT5fI4wf7kMN5uNB-42" edge="1">
          <mxGeometry relative="1" as="geometry">
            <Array as="points">
              <mxPoint x="735" y="670" />
              <mxPoint x="238" y="670" />
            </Array>
          </mxGeometry>
        </mxCell>
        <mxCell id="3FRlpT5fI4wf7kMN5uNB-31" value="&lt;font style=&quot;font-size: 21px;&quot;&gt;SIL2/SIL0-ETH&lt;/font&gt;" style="edgeLabel;html=1;align=center;verticalAlign=middle;resizable=0;points=[];endArrow=classic;rounded=0;strokeColor=default;strokeWidth=4;" parent="3FRlpT5fI4wf7kMN5uNB-30" vertex="1" connectable="0">
          <mxGeometry x="0.1433" y="1" relative="1" as="geometry">
            <mxPoint as="offset" />
          </mxGeometry>
        </mxCell>
        <mxCell id="3FRlpT5fI4wf7kMN5uNB-32" value="G600&lt;br&gt;机箱" style="whiteSpace=wrap;html=1;align=center;fillColor=#60a917;fontColor=#ffffff;strokeColor=#2D7600;verticalAlign=middle;fontSize=20;" parent="1" vertex="1">
          <mxGeometry x="510" y="-50" width="300" height="400" as="geometry" />
        </mxCell>
        <mxCell id="3FRlpT5fI4wf7kMN5uNB-33" style="edgeStyle=orthogonalEdgeStyle;rounded=0;orthogonalLoop=1;jettySize=auto;html=1;exitX=0;exitY=0.25;exitDx=0;exitDy=0;entryX=1;entryY=0.25;entryDx=0;entryDy=0;strokeWidth=4;" parent="1" source="3FRlpT5fI4wf7kMN5uNB-35" target="3FRlpT5fI4wf7kMN5uNB-32" edge="1">
          <mxGeometry relative="1" as="geometry">
            <Array as="points">
              <mxPoint x="1000" y="195" />
              <mxPoint x="1000" y="50" />
            </Array>
          </mxGeometry>
        </mxCell>
        <mxCell id="3FRlpT5fI4wf7kMN5uNB-34" value="SIL1-CAN" style="edgeLabel;html=1;align=center;verticalAlign=middle;resizable=0;points=[];fontSize=21;" parent="3FRlpT5fI4wf7kMN5uNB-33" vertex="1" connectable="0">
          <mxGeometry x="0.2878" y="3" relative="1" as="geometry">
            <mxPoint x="31" y="37" as="offset" />
          </mxGeometry>
        </mxCell>
        <mxCell id="3FRlpT5fI4wf7kMN5uNB-35" value="线控转向机，要求SIL1+人工" style="whiteSpace=wrap;html=1;align=center;fontSize=15;fillColor=#d5e8d4;strokeColor=#82b366;" parent="1" vertex="1">
          <mxGeometry x="1110" y="140" width="270" height="220" as="geometry" />
        </mxCell>
        <mxCell id="3FRlpT5fI4wf7kMN5uNB-36" value="" style="endArrow=none;dashed=1;html=1;rounded=0;fillColor=#d80073;strokeColor=#A50040;strokeWidth=3;" parent="1" edge="1">
          <mxGeometry width="50" height="50" relative="1" as="geometry">
            <mxPoint x="390" y="770" as="sourcePoint" />
            <mxPoint x="390" y="-290" as="targetPoint" />
          </mxGeometry>
        </mxCell>
        <mxCell id="3FRlpT5fI4wf7kMN5uNB-37" value="" style="endArrow=none;dashed=1;html=1;rounded=0;fillColor=#d80073;strokeColor=#A50040;strokeWidth=3;" parent="1" edge="1">
          <mxGeometry width="50" height="50" relative="1" as="geometry">
            <mxPoint x="900" y="750" as="sourcePoint" />
            <mxPoint x="890" y="-290" as="targetPoint" />
          </mxGeometry>
        </mxCell>
        <mxCell id="3FRlpT5fI4wf7kMN5uNB-39" style="edgeStyle=orthogonalEdgeStyle;rounded=0;orthogonalLoop=1;jettySize=auto;html=1;exitX=1;exitY=0.5;exitDx=0;exitDy=0;entryX=0.001;entryY=0.88;entryDx=0;entryDy=0;entryPerimeter=0;strokeWidth=4;" parent="1" source="3FRlpT5fI4wf7kMN5uNB-42" target="3FRlpT5fI4wf7kMN5uNB-32" edge="1">
          <mxGeometry relative="1" as="geometry" />
        </mxCell>
        <mxCell id="3FRlpT5fI4wf7kMN5uNB-40" value="SIL2-ETH" style="edgeLabel;html=1;align=center;verticalAlign=middle;resizable=0;points=[];fontSize=21;" parent="3FRlpT5fI4wf7kMN5uNB-39" vertex="1" connectable="0">
          <mxGeometry x="0.1152" relative="1" as="geometry">
            <mxPoint as="offset" />
          </mxGeometry>
        </mxCell>
        <mxCell id="3FRlpT5fI4wf7kMN5uNB-41" style="edgeStyle=orthogonalEdgeStyle;rounded=0;orthogonalLoop=1;jettySize=auto;html=1;exitX=0.75;exitY=0;exitDx=0;exitDy=0;entryX=1;entryY=0.75;entryDx=0;entryDy=0;" parent="1" source="3FRlpT5fI4wf7kMN5uNB-42" target="3FRlpT5fI4wf7kMN5uNB-25" edge="1">
          <mxGeometry relative="1" as="geometry" />
        </mxCell>
        <mxCell id="3FRlpT5fI4wf7kMN5uNB-42" value="整车网络-VCMS" style="whiteSpace=wrap;html=1;align=center;fontSize=15;fillColor=#d5e8d4;strokeColor=#82b366;" parent="1" vertex="1">
          <mxGeometry x="193" y="540" width="180" height="70" as="geometry" />
        </mxCell>
        <mxCell id="3FRlpT5fI4wf7kMN5uNB-43" style="edgeStyle=orthogonalEdgeStyle;rounded=0;orthogonalLoop=1;jettySize=auto;html=1;exitX=1;exitY=0.5;exitDx=0;exitDy=0;entryX=0;entryY=0.5;entryDx=0;entryDy=0;" parent="1" source="3FRlpT5fI4wf7kMN5uNB-44" target="3FRlpT5fI4wf7kMN5uNB-42" edge="1">
          <mxGeometry relative="1" as="geometry" />
        </mxCell>
        <mxCell id="3FRlpT5fI4wf7kMN5uNB-44" value="信号系统" style="whiteSpace=wrap;html=1;align=center;fontSize=15;fillColor=#60a917;fontColor=#ffffff;strokeColor=#2D7600;" parent="1" vertex="1">
          <mxGeometry x="-36" y="540" width="170" height="70" as="geometry" />
        </mxCell>
        <mxCell id="3FRlpT5fI4wf7kMN5uNB-48" value="输入" style="rounded=0;whiteSpace=wrap;html=1;fontSize=30;fillColor=#ffe6cc;strokeColor=#d79b00;" parent="1" vertex="1">
          <mxGeometry x="-166" y="-220" width="430" height="60" as="geometry" />
        </mxCell>
        <mxCell id="3FRlpT5fI4wf7kMN5uNB-49" value="计算" style="rounded=0;whiteSpace=wrap;html=1;fontSize=30;fillColor=#ffe6cc;strokeColor=#d79b00;" parent="1" vertex="1">
          <mxGeometry x="425" y="-220" width="430" height="60" as="geometry" />
        </mxCell>
        <mxCell id="3FRlpT5fI4wf7kMN5uNB-50" value="输出" style="rounded=0;whiteSpace=wrap;html=1;fontSize=30;fillColor=#ffe6cc;strokeColor=#d79b00;" parent="1" vertex="1">
          <mxGeometry x="970" y="-220" width="430" height="60" as="geometry" />
        </mxCell>
      </root>
    </mxGraphModel>
  </diagram>
  <diagram id="Fs02BWalOoeeEB6GPkO7" name="FDR配图">
    <mxGraphModel dx="1113" dy="1705" grid="1" gridSize="10" guides="1" tooltips="1" connect="1" arrows="1" fold="1" page="1" pageScale="1" pageWidth="850" pageHeight="1100" math="0" shadow="0">
      <root>
        <mxCell id="0" />
        <mxCell id="1" parent="0" />
        <mxCell id="IMAU2WSUBlP5jchnnl9h-3" style="edgeStyle=orthogonalEdgeStyle;rounded=0;orthogonalLoop=1;jettySize=auto;html=1;exitX=0.5;exitY=1;exitDx=0;exitDy=0;entryX=0.5;entryY=0;entryDx=0;entryDy=0;startArrow=classic;startFill=1;" parent="1" source="kVrlWOHZR3oxUwdPvH9f-7" target="MrvgDxOE0faTWLePAywn-1" edge="1">
          <mxGeometry relative="1" as="geometry" />
        </mxCell>
        <mxCell id="U4NYix8kap-v5bRj9md1-5" value="ETH" style="edgeLabel;html=1;align=center;verticalAlign=middle;resizable=0;points=[];" parent="IMAU2WSUBlP5jchnnl9h-3" vertex="1" connectable="0">
          <mxGeometry x="-0.3123" y="-2" relative="1" as="geometry">
            <mxPoint x="17" y="7" as="offset" />
          </mxGeometry>
        </mxCell>
        <mxCell id="kVrlWOHZR3oxUwdPvH9f-7" value="Lidar" style="rounded=0;whiteSpace=wrap;html=1;" parent="1" vertex="1">
          <mxGeometry x="250" width="110" height="50" as="geometry" />
        </mxCell>
        <mxCell id="IMAU2WSUBlP5jchnnl9h-5" style="edgeStyle=orthogonalEdgeStyle;rounded=0;orthogonalLoop=1;jettySize=auto;html=1;exitX=0.5;exitY=1;exitDx=0;exitDy=0;entryX=1;entryY=0.25;entryDx=0;entryDy=0;" parent="1" source="kVrlWOHZR3oxUwdPvH9f-8" target="MrvgDxOE0faTWLePAywn-2" edge="1">
          <mxGeometry relative="1" as="geometry" />
        </mxCell>
        <mxCell id="U4NYix8kap-v5bRj9md1-6" value="ETH" style="edgeLabel;html=1;align=center;verticalAlign=middle;resizable=0;points=[];" parent="IMAU2WSUBlP5jchnnl9h-5" vertex="1" connectable="0">
          <mxGeometry x="-0.4022" y="2" relative="1" as="geometry">
            <mxPoint as="offset" />
          </mxGeometry>
        </mxCell>
        <mxCell id="kVrlWOHZR3oxUwdPvH9f-8" value="&lt;p align=&quot;center&quot; class=&quot;MsoNormal&quot;&gt;Integrated Inertial Navigation-1&lt;/p&gt;" style="rounded=0;whiteSpace=wrap;html=1;" parent="1" vertex="1">
          <mxGeometry x="375" width="110" height="50" as="geometry" />
        </mxCell>
        <mxCell id="IMAU2WSUBlP5jchnnl9h-2" style="edgeStyle=orthogonalEdgeStyle;rounded=0;orthogonalLoop=1;jettySize=auto;html=1;exitX=0.5;exitY=1;exitDx=0;exitDy=0;entryX=0;entryY=0.5;entryDx=0;entryDy=0;" parent="1" source="kVrlWOHZR3oxUwdPvH9f-9" target="MrvgDxOE0faTWLePAywn-1" edge="1">
          <mxGeometry relative="1" as="geometry" />
        </mxCell>
        <mxCell id="U4NYix8kap-v5bRj9md1-4" value="CAN bus" style="edgeLabel;html=1;align=center;verticalAlign=middle;resizable=0;points=[];" parent="IMAU2WSUBlP5jchnnl9h-2" vertex="1" connectable="0">
          <mxGeometry x="-0.4776" y="-1" relative="1" as="geometry">
            <mxPoint as="offset" />
          </mxGeometry>
        </mxCell>
        <mxCell id="kVrlWOHZR3oxUwdPvH9f-9" value="Virtual Track&lt;br style=&quot;border-color: var(--border-color);&quot;&gt;Detection Camera" style="rounded=0;whiteSpace=wrap;html=1;" parent="1" vertex="1">
          <mxGeometry x="125" width="110" height="50" as="geometry" />
        </mxCell>
        <mxCell id="IMAU2WSUBlP5jchnnl9h-6" style="edgeStyle=orthogonalEdgeStyle;rounded=0;orthogonalLoop=1;jettySize=auto;html=1;exitX=0.5;exitY=1;exitDx=0;exitDy=0;entryX=1;entryY=0.25;entryDx=0;entryDy=0;" parent="1" source="kVrlWOHZR3oxUwdPvH9f-10" target="MrvgDxOE0faTWLePAywn-2" edge="1">
          <mxGeometry relative="1" as="geometry" />
        </mxCell>
        <mxCell id="U4NYix8kap-v5bRj9md1-7" value="ETH" style="edgeLabel;html=1;align=center;verticalAlign=middle;resizable=0;points=[];" parent="IMAU2WSUBlP5jchnnl9h-6" vertex="1" connectable="0">
          <mxGeometry x="-0.629" y="-1" relative="1" as="geometry">
            <mxPoint as="offset" />
          </mxGeometry>
        </mxCell>
        <mxCell id="kVrlWOHZR3oxUwdPvH9f-10" value="&lt;p align=&quot;center&quot; class=&quot;MsoNormal&quot;&gt;Integrated Inertial Navigation-2&lt;/p&gt;" style="rounded=0;whiteSpace=wrap;html=1;" parent="1" vertex="1">
          <mxGeometry x="500" width="110" height="50" as="geometry" />
        </mxCell>
        <mxCell id="IMAU2WSUBlP5jchnnl9h-4" style="edgeStyle=orthogonalEdgeStyle;rounded=0;orthogonalLoop=1;jettySize=auto;html=1;exitX=0.5;exitY=1;exitDx=0;exitDy=0;entryX=0.5;entryY=0;entryDx=0;entryDy=0;startArrow=classic;startFill=1;" parent="1" source="MrvgDxOE0faTWLePAywn-1" target="MrvgDxOE0faTWLePAywn-2" edge="1">
          <mxGeometry relative="1" as="geometry" />
        </mxCell>
        <mxCell id="wQMwHu649u76yA4_aUKi-7" value="ETH" style="edgeLabel;html=1;align=center;verticalAlign=middle;resizable=0;points=[];" vertex="1" connectable="0" parent="IMAU2WSUBlP5jchnnl9h-4">
          <mxGeometry x="0.0106" relative="1" as="geometry">
            <mxPoint x="15" as="offset" />
          </mxGeometry>
        </mxCell>
        <mxCell id="MrvgDxOE0faTWLePAywn-1" value="Data Processor&lt;br&gt;Unit" style="rounded=0;whiteSpace=wrap;html=1;" parent="1" vertex="1">
          <mxGeometry x="250" y="88" width="110" height="60" as="geometry" />
        </mxCell>
        <mxCell id="IMAU2WSUBlP5jchnnl9h-7" style="edgeStyle=orthogonalEdgeStyle;rounded=0;orthogonalLoop=1;jettySize=auto;html=1;exitX=1;exitY=0.75;exitDx=0;exitDy=0;" parent="1" source="MrvgDxOE0faTWLePAywn-2" target="rWSUHtzKuTM30Zg1w_sU-1" edge="1">
          <mxGeometry relative="1" as="geometry" />
        </mxCell>
        <mxCell id="U4NYix8kap-v5bRj9md1-8" value="DO" style="edgeLabel;html=1;align=center;verticalAlign=middle;resizable=0;points=[];" parent="IMAU2WSUBlP5jchnnl9h-7" vertex="1" connectable="0">
          <mxGeometry x="-0.0676" relative="1" as="geometry">
            <mxPoint as="offset" />
          </mxGeometry>
        </mxCell>
        <mxCell id="U4NYix8kap-v5bRj9md1-1" style="edgeStyle=orthogonalEdgeStyle;rounded=0;orthogonalLoop=1;jettySize=auto;html=1;exitX=0.5;exitY=1;exitDx=0;exitDy=0;entryX=0.5;entryY=0;entryDx=0;entryDy=0;startArrow=classic;startFill=1;" parent="1" source="MrvgDxOE0faTWLePAywn-2" target="MrvgDxOE0faTWLePAywn-3" edge="1">
          <mxGeometry relative="1" as="geometry" />
        </mxCell>
        <mxCell id="wQMwHu649u76yA4_aUKi-6" value="ETH" style="edgeLabel;html=1;align=center;verticalAlign=middle;resizable=0;points=[];" vertex="1" connectable="0" parent="U4NYix8kap-v5bRj9md1-1">
          <mxGeometry x="-0.0365" y="-1" relative="1" as="geometry">
            <mxPoint as="offset" />
          </mxGeometry>
        </mxCell>
        <mxCell id="U4NYix8kap-v5bRj9md1-3" style="edgeStyle=orthogonalEdgeStyle;rounded=0;orthogonalLoop=1;jettySize=auto;html=1;exitX=0;exitY=0.5;exitDx=0;exitDy=0;startArrow=classic;startFill=1;" parent="1" source="MrvgDxOE0faTWLePAywn-2" edge="1">
          <mxGeometry relative="1" as="geometry">
            <mxPoint x="40" y="210" as="targetPoint" />
          </mxGeometry>
        </mxCell>
        <mxCell id="U4NYix8kap-v5bRj9md1-14" value="CAN bus&lt;br&gt;/ETH" style="edgeLabel;html=1;align=center;verticalAlign=middle;resizable=0;points=[];" parent="U4NYix8kap-v5bRj9md1-3" vertex="1" connectable="0">
          <mxGeometry x="0.073" y="1" relative="1" as="geometry">
            <mxPoint x="12" y="-2" as="offset" />
          </mxGeometry>
        </mxCell>
        <mxCell id="U4NYix8kap-v5bRj9md1-11" style="edgeStyle=orthogonalEdgeStyle;rounded=0;orthogonalLoop=1;jettySize=auto;html=1;exitX=0.75;exitY=1;exitDx=0;exitDy=0;startArrow=classic;startFill=1;" parent="1" source="MrvgDxOE0faTWLePAywn-2" target="MrvgDxOE0faTWLePAywn-4" edge="1">
          <mxGeometry relative="1" as="geometry" />
        </mxCell>
        <mxCell id="U4NYix8kap-v5bRj9md1-12" value="CAN bus" style="edgeLabel;html=1;align=center;verticalAlign=middle;resizable=0;points=[];" parent="U4NYix8kap-v5bRj9md1-11" vertex="1" connectable="0">
          <mxGeometry x="-0.0597" relative="1" as="geometry">
            <mxPoint as="offset" />
          </mxGeometry>
        </mxCell>
        <mxCell id="MrvgDxOE0faTWLePAywn-2" value="&lt;p align=&quot;center&quot; class=&quot;MsoNormal&quot;&gt;Intelligent Driving Computing Platform&lt;/p&gt;" style="rounded=0;whiteSpace=wrap;html=1;" parent="1" vertex="1">
          <mxGeometry x="250" y="180" width="110" height="60" as="geometry" />
        </mxCell>
        <mxCell id="U4NYix8kap-v5bRj9md1-9" style="edgeStyle=orthogonalEdgeStyle;rounded=0;orthogonalLoop=1;jettySize=auto;html=1;exitX=1;exitY=0.5;exitDx=0;exitDy=0;" parent="1" source="MrvgDxOE0faTWLePAywn-3" target="MrvgDxOE0faTWLePAywn-4" edge="1">
          <mxGeometry relative="1" as="geometry" />
        </mxCell>
        <mxCell id="U4NYix8kap-v5bRj9md1-13" value="CAN bus" style="edgeLabel;html=1;align=center;verticalAlign=middle;resizable=0;points=[];" parent="U4NYix8kap-v5bRj9md1-9" vertex="1" connectable="0">
          <mxGeometry x="0.0638" y="-1" relative="1" as="geometry">
            <mxPoint as="offset" />
          </mxGeometry>
        </mxCell>
        <mxCell id="wQMwHu649u76yA4_aUKi-3" style="edgeStyle=orthogonalEdgeStyle;rounded=0;orthogonalLoop=1;jettySize=auto;html=1;exitX=0;exitY=0.5;exitDx=0;exitDy=0;" edge="1" parent="1" source="MrvgDxOE0faTWLePAywn-3">
          <mxGeometry relative="1" as="geometry">
            <mxPoint x="40" y="329.8571428571429" as="targetPoint" />
          </mxGeometry>
        </mxCell>
        <mxCell id="wQMwHu649u76yA4_aUKi-4" value="ETH" style="edgeLabel;html=1;align=center;verticalAlign=middle;resizable=0;points=[];" vertex="1" connectable="0" parent="wQMwHu649u76yA4_aUKi-3">
          <mxGeometry x="-0.135" y="-1" relative="1" as="geometry">
            <mxPoint x="-9" y="1" as="offset" />
          </mxGeometry>
        </mxCell>
        <mxCell id="wQMwHu649u76yA4_aUKi-8" value="CAN bus&lt;br style=&quot;border-color: var(--border-color);&quot;&gt;/ETH" style="edgeLabel;html=1;align=center;verticalAlign=middle;resizable=0;points=[];" vertex="1" connectable="0" parent="wQMwHu649u76yA4_aUKi-3">
          <mxGeometry x="-0.0336" y="1" relative="1" as="geometry">
            <mxPoint as="offset" />
          </mxGeometry>
        </mxCell>
        <mxCell id="MrvgDxOE0faTWLePAywn-3" value="&lt;p align=&quot;center&quot; class=&quot;MsoNormal&quot; style=&quot;font-size: 21px;&quot;&gt;VCMS&amp;nbsp;&lt;/p&gt;" style="rounded=0;whiteSpace=wrap;html=1;fontSize=21;fontStyle=0" parent="1" vertex="1">
          <mxGeometry x="250" y="300" width="110" height="60" as="geometry" />
        </mxCell>
        <mxCell id="MrvgDxOE0faTWLePAywn-4" value="&lt;p align=&quot;center&quot; class=&quot;MsoNormal&quot;&gt;Steering System&lt;span style=&quot;font-size:8.0pt;line-height:107%;mso-ansi-language:EN-US;mso-fareast-language:&lt;br/&gt;ZH-CN&quot; lang=&quot;EN-US&quot;&gt;&lt;/span&gt;&lt;/p&gt;" style="rounded=0;whiteSpace=wrap;html=1;" parent="1" vertex="1">
          <mxGeometry x="500" y="315" width="110" height="30" as="geometry" />
        </mxCell>
        <mxCell id="U4NYix8kap-v5bRj9md1-2" style="edgeStyle=orthogonalEdgeStyle;rounded=0;orthogonalLoop=1;jettySize=auto;html=1;exitX=0.5;exitY=0;exitDx=0;exitDy=0;startArrow=classic;startFill=1;" parent="1" source="MrvgDxOE0faTWLePAywn-5" target="MrvgDxOE0faTWLePAywn-3" edge="1">
          <mxGeometry relative="1" as="geometry" />
        </mxCell>
        <mxCell id="wQMwHu649u76yA4_aUKi-5" value="ETH" style="edgeLabel;html=1;align=center;verticalAlign=middle;resizable=0;points=[];" vertex="1" connectable="0" parent="U4NYix8kap-v5bRj9md1-2">
          <mxGeometry x="0.0762" y="2" relative="1" as="geometry">
            <mxPoint x="17" y="2" as="offset" />
          </mxGeometry>
        </mxCell>
        <mxCell id="MrvgDxOE0faTWLePAywn-5" value="&lt;p align=&quot;center&quot; class=&quot;MsoNormal&quot; style=&quot;font-size: 21px;&quot;&gt;S&amp;amp;CS&amp;nbsp;&lt;/p&gt;" style="rounded=0;whiteSpace=wrap;html=1;fontSize=21;fontStyle=0" parent="1" vertex="1">
          <mxGeometry x="250" y="400" width="110" height="60" as="geometry" />
        </mxCell>
        <mxCell id="rWSUHtzKuTM30Zg1w_sU-1" value="Safety Brake" style="rounded=0;whiteSpace=wrap;html=1;" parent="1" vertex="1">
          <mxGeometry x="500" y="210" width="110" height="30" as="geometry" />
        </mxCell>
      </root>
    </mxGraphModel>
  </diagram>
  <diagram id="nptcOuLKaHKvkSKwmcC3" name="Page-4">
    <mxGraphModel dx="625" dy="331" grid="1" gridSize="10" guides="1" tooltips="1" connect="1" arrows="1" fold="1" page="1" pageScale="1" pageWidth="850" pageHeight="1100" math="0" shadow="0">
      <root>
        <mxCell id="0" />
        <mxCell id="1" parent="0" />
        <mxCell id="zVtIXGHuYT0w35PzOh1E-5" style="edgeStyle=orthogonalEdgeStyle;rounded=0;orthogonalLoop=1;jettySize=auto;html=1;exitX=0.5;exitY=1;exitDx=0;exitDy=0;entryX=0.5;entryY=0;entryDx=0;entryDy=0;" edge="1" parent="1" source="zVtIXGHuYT0w35PzOh1E-1" target="zVtIXGHuYT0w35PzOh1E-2">
          <mxGeometry relative="1" as="geometry" />
        </mxCell>
        <mxCell id="zVtIXGHuYT0w35PzOh1E-10" value="GPCHC&lt;br&gt;ETH" style="edgeLabel;html=1;align=center;verticalAlign=middle;resizable=0;points=[];" vertex="1" connectable="0" parent="zVtIXGHuYT0w35PzOh1E-5">
          <mxGeometry x="-0.1024" relative="1" as="geometry">
            <mxPoint as="offset" />
          </mxGeometry>
        </mxCell>
        <mxCell id="zVtIXGHuYT0w35PzOh1E-8" style="edgeStyle=orthogonalEdgeStyle;rounded=0;orthogonalLoop=1;jettySize=auto;html=1;exitX=1;exitY=0.5;exitDx=0;exitDy=0;" edge="1" parent="1" source="zVtIXGHuYT0w35PzOh1E-1" target="zVtIXGHuYT0w35PzOh1E-3">
          <mxGeometry relative="1" as="geometry" />
        </mxCell>
        <mxCell id="zVtIXGHuYT0w35PzOh1E-9" value="PPS" style="edgeLabel;html=1;align=center;verticalAlign=middle;resizable=0;points=[];" vertex="1" connectable="0" parent="zVtIXGHuYT0w35PzOh1E-8">
          <mxGeometry x="0.1069" y="-2" relative="1" as="geometry">
            <mxPoint as="offset" />
          </mxGeometry>
        </mxCell>
        <mxCell id="zVtIXGHuYT0w35PzOh1E-11" style="edgeStyle=orthogonalEdgeStyle;rounded=0;orthogonalLoop=1;jettySize=auto;html=1;exitX=1;exitY=0.75;exitDx=0;exitDy=0;entryX=0;entryY=0.5;entryDx=0;entryDy=0;" edge="1" parent="1" source="zVtIXGHuYT0w35PzOh1E-1" target="zVtIXGHuYT0w35PzOh1E-7">
          <mxGeometry relative="1" as="geometry" />
        </mxCell>
        <mxCell id="zVtIXGHuYT0w35PzOh1E-12" value="PPS" style="edgeLabel;html=1;align=center;verticalAlign=middle;resizable=0;points=[];" vertex="1" connectable="0" parent="zVtIXGHuYT0w35PzOh1E-11">
          <mxGeometry x="0.0817" y="2" relative="1" as="geometry">
            <mxPoint as="offset" />
          </mxGeometry>
        </mxCell>
        <mxCell id="zVtIXGHuYT0w35PzOh1E-1" value="GPS /RTK&amp;nbsp;&lt;br&gt;430" style="rounded=0;whiteSpace=wrap;html=1;" vertex="1" parent="1">
          <mxGeometry x="70" y="180" width="160" height="60" as="geometry" />
        </mxCell>
        <mxCell id="zVtIXGHuYT0w35PzOh1E-2" value="计算单元&lt;br style=&quot;border-color: var(--border-color);&quot;&gt;linux" style="rounded=0;whiteSpace=wrap;html=1;verticalAlign=top;align=left;" vertex="1" parent="1">
          <mxGeometry x="60" y="360" width="180" height="150" as="geometry" />
        </mxCell>
        <mxCell id="zVtIXGHuYT0w35PzOh1E-16" style="edgeStyle=orthogonalEdgeStyle;rounded=0;orthogonalLoop=1;jettySize=auto;html=1;exitX=1;exitY=0.5;exitDx=0;exitDy=0;entryX=1;entryY=0.5;entryDx=0;entryDy=0;" edge="1" parent="1" source="zVtIXGHuYT0w35PzOh1E-3" target="zVtIXGHuYT0w35PzOh1E-15">
          <mxGeometry relative="1" as="geometry" />
        </mxCell>
        <mxCell id="zVtIXGHuYT0w35PzOh1E-3" value="Lidar" style="rounded=0;whiteSpace=wrap;html=1;" vertex="1" parent="1">
          <mxGeometry x="365" y="180" width="120" height="60" as="geometry" />
        </mxCell>
        <mxCell id="zVtIXGHuYT0w35PzOh1E-13" style="edgeStyle=orthogonalEdgeStyle;rounded=0;orthogonalLoop=1;jettySize=auto;html=1;exitX=0.5;exitY=1;exitDx=0;exitDy=0;entryX=1.007;entryY=0.067;entryDx=0;entryDy=0;entryPerimeter=0;" edge="1" parent="1" source="zVtIXGHuYT0w35PzOh1E-7" target="zVtIXGHuYT0w35PzOh1E-2">
          <mxGeometry relative="1" as="geometry" />
        </mxCell>
        <mxCell id="zVtIXGHuYT0w35PzOh1E-14" value="PTPv2" style="edgeLabel;html=1;align=center;verticalAlign=middle;resizable=0;points=[];" vertex="1" connectable="0" parent="zVtIXGHuYT0w35PzOh1E-13">
          <mxGeometry x="0.2436" y="1" relative="1" as="geometry">
            <mxPoint as="offset" />
          </mxGeometry>
        </mxCell>
        <mxCell id="zVtIXGHuYT0w35PzOh1E-7" value="授时器-Master" style="rounded=0;whiteSpace=wrap;html=1;" vertex="1" parent="1">
          <mxGeometry x="365" y="310" width="120" height="60" as="geometry" />
        </mxCell>
        <mxCell id="zVtIXGHuYT0w35PzOh1E-15" value="Error1=系统时间-Lidar时间&lt;br&gt;&lt;br&gt;Error2=系统时间-GPCHC时间" style="rounded=0;whiteSpace=wrap;html=1;" vertex="1" parent="1">
          <mxGeometry x="60" y="420" width="180" height="60" as="geometry" />
        </mxCell>
      </root>
    </mxGraphModel>
  </diagram>
</mxfile>
